<svg xmlns="http://www.w3.org/2000/svg" width="16" height="14" viewBox="0 0 16 14">
  <g id="tick_1_" data-name="tick (1)" transform="translate(0 -3.15)">
    <g id="Group_46" data-name="Group 46" transform="translate(0 3.15)">
      <path id="Path_77" data-name="Path 77" d="M8.365,16.173a2.33,2.33,0,0,1-3.648.183L.47,11.552A1.885,1.885,0,0,1,.6,8.925a1.8,1.8,0,0,1,2.578.137l3.005,3.4a.22.22,0,0,0,.176.074.222.222,0,0,0,.168-.091l6.177-8.537a1.8,1.8,0,0,1,2.552-.393,1.883,1.883,0,0,1,.385,2.6Z" transform="translate(0 -3.15)" fill="#00bc87"/>
    </g>
  </g>
</svg>
