<svg xmlns="http://www.w3.org/2000/svg" width="56" height="60" viewBox="0 0 56 60"><path d="M45.137,294.449a37.543,37.543,0,0,0-33.867,0,6.858,6.858,0,0,0-3.77,6.118v13.548A1.39,1.39,0,0,0,8.893,315.5H48.907V300.566A6.858,6.858,0,0,0,45.137,294.449Zm0,0" transform="translate(-6.618 -256.38)" fill="#51a1c8"/><path d="M145.609,225.531h8.908v11.375h-8.908Zm0,0" transform="translate(-128.478 -199.102)" fill="#fed6a6"/><path d="M171.785,233.971a2.826,2.826,0,0,0,2.319,2.779c.268.049.535.1.8.157h2.708V225.531h-5.829Zm0,0" transform="translate(-151.574 -199.102)" fill="#efc79c"/><path d="M93.86,43.75H73.288a3.028,3.028,0,0,0-3.034,3.022v8.361h26.64V46.772A3.028,3.028,0,0,0,93.86,43.75Zm0,0" transform="translate(-61.988 -38.623)" fill="#fa9a39"/><path d="M69.646,118.574h-1.62a2.483,2.483,0,0,0-2.487,2.479v1.172a2.483,2.483,0,0,0,2.487,2.479h1.62Zm0,0" transform="translate(-57.828 -104.679)" fill="#fed6a6"/><path d="M266.492,118.574h1.62a2.482,2.482,0,0,1,2.487,2.479v1.172a2.483,2.483,0,0,1-2.487,2.479h-1.62Zm0,0" transform="translate(-235.139 -104.679)" fill="#fed6a6"/><path d="M94.207,83.918l.036,11.565c.069,2.947,1.747,4.98,3.528,6.726,1.638,1.607,3.867,3.5,6.994,3.531,3.127-.048,5.343-1.958,6.97-3.577,1.768-1.758,3.432-3.806,3.481-6.753l-.022-7.012a4.5,4.5,0,0,0-4.514-4.482H94.207Zm0,0" transform="translate(-83.123 -74.084)" fill="#ffe3c2"/><path d="M172.485,88.4a4.5,4.5,0,0,0-4.514-4.482h-1.286l.036,11.493c-.049,2.947-1.713,4.995-3.481,6.753a13.122,13.122,0,0,1-4.1,2.974,7.708,7.708,0,0,0,2.919.6c3.127-.048,5.343-1.959,6.97-3.577,1.768-1.758,3.432-3.806,3.481-6.753Zm0,0" transform="translate(-140.414 -74.087)" fill="#f7d6b5"/><path d="M77.542,7.5a4.454,4.454,0,0,0-4.457,4.258,3.064,3.064,0,0,0-2.827,3.012v6.665a2.484,2.484,0,0,1,1.932-.919h.9a3.584,3.584,0,0,0,3.375-2.923,1.128,1.128,0,0,1,1.13-1.126h12.2A6.678,6.678,0,0,0,96.482,9.8v-2a.308.308,0,0,0-.309-.308Zm0,0" transform="translate(-61.992 -6.621)" fill="#fdbd37"/><path d="M188.742,280.684l-5.273,4.568,5.443,3.294a.94.94,0,0,0,1.25-.255l3.812-5.311-3.238-2.376A1.6,1.6,0,0,0,188.742,280.684Zm0,0" transform="translate(-161.883 -247.448)" fill="#3990b2"/><path d="M257.665,305.747a37.477,37.477,0,0,0-6.43-2.536h0l-2.869,4a37.648,37.648,0,0,1,3.469,1.537,6.858,6.858,0,0,1,3.77,6.118V326.8h5.829V311.864A6.858,6.858,0,0,0,257.665,305.747Zm0,0" transform="translate(-219.146 -267.678)" fill="#4497b7"/><path d="M99.438,280.684l5.273,4.568-5.443,3.294a.94.94,0,0,1-1.25-.255l-3.812-5.311,3.238-2.376A1.6,1.6,0,0,1,99.438,280.684Zm0,0" transform="translate(-83.123 -247.448)" fill="#3990b2"/><path d="M158.309,383.8l-1.979-16.022h-3.784L150.566,383.8Zm0,0" transform="translate(-132.852 -324.678)" fill="#3e678c"/><path d="M159.805,322.605l-3.157,1.91,1.264,3.383H161.7l1.264-3.384Zm0,0" transform="translate(-138.218 -284.8)" fill="#375779"/><path d="M270.005,355.672h-20.7a2.7,2.7,0,0,0-2.7,2.693v12.054a2.7,2.7,0,0,0,2.7,2.693h20.7a2.7,2.7,0,0,0,2.7-2.693V358.365A2.7,2.7,0,0,0,270.005,355.672Zm0,0" transform="translate(-217.592 -313.992)" fill="#d08f61"/><path d="M401.823,355.672H396a2.7,2.7,0,0,1,2.7,2.693v12.054a2.7,2.7,0,0,1-2.7,2.693h5.823a2.7,2.7,0,0,0,2.7-2.693V358.365A2.7,2.7,0,0,0,401.823,355.672Zm0,0" transform="translate(-349.41 -313.992)" fill="#c67f4f"/><path d="M272.727,358.309a2.7,2.7,0,0,0-2.7-2.637h-20.7a2.7,2.7,0,0,0-2.7,2.637,5.673,5.673,0,0,0,5.682,5.551h14.734A5.673,5.673,0,0,0,272.727,358.309Zm0,0" transform="translate(-217.613 -313.992)" fill="#8b5f46"/><path d="M398.7,358.365v5.495h.138a5.673,5.673,0,0,0,5.682-5.551,2.693,2.693,0,0,0-1.542-2.378l-.009,0c-.036-.016-.072-.033-.109-.048l-.019-.008-.1-.039-.028-.01c-.032-.011-.063-.022-.1-.032l-.039-.011c-.029-.009-.058-.017-.088-.025l-.05-.011-.08-.018-.059-.011-.073-.012-.07-.009-.064-.008-.085-.006-.051,0c-.046,0-.091,0-.137,0H396A2.7,2.7,0,0,1,398.7,358.365Zm0,0" transform="translate(-349.41 -313.992)" fill="#844535"/><path d="M338.659,416.253h-4.708a.477.477,0,0,1-.478-.476v-1.891a.477.477,0,0,1,.478-.476h4.708a.477.477,0,0,1,.478.476v1.891A.477.477,0,0,1,338.659,416.253Zm0,0" transform="translate(-294.239 -364.964)" fill="#e4ebf0"/><path d="M175.454,156.333h.771a.879.879,0,1,0,0-1.758h-.256v-1.817a.882.882,0,0,0-1.765,0v2.33A1.25,1.25,0,0,0,175.454,156.333Zm0,0" transform="translate(-153.708 -134.081)"/><path d="M154.865,204.937a.881.881,0,0,0-1.491-.94,3.593,3.593,0,0,1-5.5,0,.881.881,0,0,0-1.491.94,5.336,5.336,0,0,0,8.487,0Zm0,0" transform="translate(-129.036 -179.73)"/><path d="M222.367,136.206a.88.88,0,0,0,.882-.879v-1.061a.882.882,0,0,0-1.765,0v1.061A.881.881,0,0,0,222.367,136.206Zm0,0" transform="translate(-195.426 -117.755)"/><path d="M131.336,133.387a.881.881,0,0,0-.882.879v1.061a.882.882,0,0,0,1.765,0v-1.061A.88.88,0,0,0,131.336,133.387Zm0,0" transform="translate(-115.105 -117.755)"/><path d="M55.118,49.366a.881.881,0,0,0-.882.879v6.183a1.82,1.82,0,0,1-1.822,1.815h-20.7A1.82,1.82,0,0,1,29.9,56.428V50.245a.882.882,0,0,0-1.765,0v6.183a3.537,3.537,0,0,0,.5,1.815H26.237L24.38,43.206l.824-2.184,1.367.828A1.831,1.831,0,0,0,29,41.355l3.445-4.8a36.76,36.76,0,0,1,4.674,1.807,2.032,2.032,0,0,0-.137.736v1.7H31.718a3.6,3.6,0,0,0-3.583,3.5c0,.012,0,.024,0,.035A6.553,6.553,0,0,0,34.7,50.747h3.653v.066a1.359,1.359,0,0,0,1.36,1.355H44.42a1.359,1.359,0,0,0,1.36-1.355v-.066h3.653A6.553,6.553,0,0,0,56,44.334c0-.011,0-.023,0-.035a3.6,3.6,0,0,0-3.583-3.5H47.154V39.1a2.259,2.259,0,0,0-2.332-2.173H39.309a2.469,2.469,0,0,0-.828.141,38.468,38.468,0,0,0-5.994-2.335l-3.111-2.283a2.47,2.47,0,0,0-2.454-.281V30.7a18.665,18.665,0,0,0,2.313-2c1.91-1.9,3.686-4.106,3.74-7.36,0-.005,0-.011,0-.017V20.9a3.367,3.367,0,0,0,3.369-3.358V16.374a3.333,3.333,0,0,0-.555-1.844V8.149a3.9,3.9,0,0,0-.856-2.433,7.477,7.477,0,0,0,.44-2.535v-2A1.19,1.19,0,0,0,34.181,0H15.55a5.323,5.323,0,0,0-5.263,4.391,3.939,3.939,0,0,0-2.9,3.758V14.53a3.33,3.33,0,0,0-.555,1.844v1.172A3.368,3.368,0,0,0,10.2,20.9h.038v.5c0,.006,0,.012,0,.018.076,3.251,1.867,5.446,3.791,7.332a18.985,18.985,0,0,0,2.221,1.907v1.508a2.47,2.47,0,0,0-2.451.282l-3.11,2.282a38.5,38.5,0,0,0-6.435,2.554A7.7,7.7,0,0,0,0,44.186v2.826a.882.882,0,0,0,1.765,0V44.186a5.951,5.951,0,0,1,3.287-5.333,36.681,36.681,0,0,1,5.681-2.3l3.445,4.8a1.831,1.831,0,0,0,2.425.5l1.372-.83.816,2.185L16.934,58.242H8.3V51.264a.882.882,0,0,0-1.765,0v6.978H2.275a.51.51,0,0,1-.511-.509V51.11A.882.882,0,0,0,0,51.11v6.624A2.273,2.273,0,0,0,2.275,60H52.413A3.584,3.584,0,0,0,56,56.428V50.245A.881.881,0,0,0,55.118,49.366Zm-11.1,1.045h-3.9V49.325h3.9Zm.807-11.727c.307,0,.567.19.567.416v1.7h-3a7.731,7.731,0,0,0-1.523-2.118Zm-6.08.531a5.981,5.981,0,0,1,1.61,1.586h-1.61Zm13.672,3.344a1.826,1.826,0,0,1,1.819,1.76,4.817,4.817,0,0,1-4.8,4.671H45.78v-.067a1.359,1.359,0,0,0-1.36-1.355H39.712a1.359,1.359,0,0,0-1.36,1.355v.067H34.7a4.816,4.816,0,0,1-4.8-4.67,1.827,1.827,0,0,1,1.819-1.76ZM27.438,33.9a.712.712,0,0,1,.891-.036l2.537,1.862L27.56,40.332a.056.056,0,0,1-.074.015l-4.411-2.669Zm-5.851,4.934,2.074,1.255-.8,2.131H20.307l-.8-2.13Zm0-2.195-3.573-3.095V31.7a8.616,8.616,0,0,0,3.621.832h.021a8.6,8.6,0,0,0,3.5-.8v1.814ZM34.578,16.374v1.172a1.6,1.6,0,0,1-1.6,1.6h-.006l-.013-4.373h.019A1.6,1.6,0,0,1,34.578,16.374Zm-.555-8.225v5.034a3.373,3.373,0,0,0-1.05-.167h-.185a5.4,5.4,0,0,0-1.932-2.933,7.62,7.62,0,0,0,3.09-2.5A2.122,2.122,0,0,1,34.023,8.149Zm-23.825,11a1.6,1.6,0,0,1-1.6-1.6V16.374a1.6,1.6,0,0,1,1.6-1.6h.019l.013,4.372Zm-1.05-5.963V8.149a2.179,2.179,0,0,1,2.016-2.136.881.881,0,0,0,.81-.84A3.563,3.563,0,0,1,15.55,1.758H33.608V3.182A5.8,5.8,0,0,1,27.8,8.968H15.6a2.012,2.012,0,0,0-2.01,1.9,2.684,2.684,0,0,1-2.5,2.149A15.88,15.88,0,0,0,9.148,13.183ZM15.266,27.5c-1.657-1.626-3.2-3.491-3.264-6.112l-.021-6.715a4.581,4.581,0,0,0,3.355-3.527c.07-.335.129-.42.265-.42H27.845a3.63,3.63,0,0,1,3.343,3.593l.022,7c-.047,2.624-1.576,4.5-3.222,6.137-1.707,1.7-3.658,3.274-6.35,3.32C18.949,30.751,16.986,29.187,15.266,27.5Zm.421,12.848a.056.056,0,0,1-.074-.015l-3.306-4.606,2.537-1.862a.712.712,0,0,1,.891.036L20.1,37.678Zm3.025,17.895,1.762-14.264H22.7l1.762,14.264Zm0,0"/></svg>