<svg xmlns="http://www.w3.org/2000/svg" width="56.664" height="60" viewBox="0 0 56.664 60"><g transform="translate(-14.234 0)"><path d="M101.1,312.877l-5.529.4-5.4,5.541H69.388l18.533-14.25,5.457-9.1A2.693,2.693,0,0,1,97.635,295l10.239,7.844a3.125,3.125,0,0,1,.2,4.794l-4.3,3.907A5.39,5.39,0,0,1,101.1,312.877Z" transform="translate(-48.691 -259.69)" fill="#fed9a8"/><path d="M210.443,353.767l-2.5-1.918a3.119,3.119,0,0,1-.929,3.079l-4.3,3.907a5.387,5.387,0,0,1-2.671,1.336l-5.529.4-8.935,9.173h7.171l5.4-5.541,5.529-.4a5.389,5.389,0,0,0,2.671-1.336l4.3-3.907A3.125,3.125,0,0,0,210.443,353.767Z" transform="translate(-151.259 -310.617)" fill="#f4c28c"/><path d="M319.954,326.226l1.033,1.111a1.9,1.9,0,0,1-1.6-.589l-.94-1.011A1.64,1.64,0,0,1,319.954,326.226Z" transform="translate(-268.564 -287.541)" fill="#e8d06b"/><path d="M265.06,252.979,258.5,258.5,241.19,234.83l3.407-2.865Z" transform="translate(-200.36 -204.782)" fill="#f7bc14"/><path d="M63.432,54.43l5.656,6.724a19,19,0,0,0,17.021,6.312l3.968-.474,1.147-3.828a19,19,0,0,0-3.3-17.851l-5.656-6.724Z" transform="translate(-43.433 -34.067)" fill="#fed130"/><path d="M199.377,45.312l-5.656-6.724-4.04,3.4,5.963,7.059a19,19,0,0,1,3.3,17.851l-.126.419,2.711-.324,1.147-3.828A19,19,0,0,0,199.377,45.312Z" transform="translate(-154.887 -34.066)" fill="#f7bc14"/><path d="M68.764,23.936,48.545,40.941a.7.7,0,0,1-.982-.085l-1.28-1.521a.7.7,0,0,1,.085-.982L66.588,21.348a.7.7,0,0,1,.982.085l1.279,1.521A.7.7,0,0,1,68.764,23.936Z" transform="translate(-28.15 -18.702)" fill="#ffb125"/><path d="M196.131,22.954l-1.279-1.521a.7.7,0,0,0-.982-.085l-3.572,3,2.177,2.588,3.572-3A.7.7,0,0,0,196.131,22.954Z" transform="translate(-155.431 -18.702)" fill="#ff901d"/><path d="M171.029,150.378l3.619,1.586a.154.154,0,0,0,.143-.01l3.358-2.082a.154.154,0,0,1,.234.146l-.39,3.932a.154.154,0,0,0,.054.133l3.018,2.55a.154.154,0,0,1-.066.268l-3.86.844a.154.154,0,0,0-.11.092l-1.493,3.658a.154.154,0,0,1-.275.02l-2-3.41a.154.154,0,0,0-.122-.076l-3.94-.29a.154.154,0,0,1-.1-.256l2.627-2.951a.154.154,0,0,0,.034-.139l-.942-3.837A.154.154,0,0,1,171.029,150.378Z" transform="translate(-136.682 -132.289)" fill="#fff"/><path d="M364.406,372.606l-12.33,10.37a1.145,1.145,0,0,1-1.712-.276l-2.038-3.315a1.145,1.145,0,0,1,.238-1.476l11.452-9.632a1.145,1.145,0,0,1,1.495.018l2.916,2.576A1.145,1.145,0,0,1,364.406,372.606Z" transform="translate(-294.791 -324.884)" fill="#ffb125"/><path d="M428.6,370.873l-2.916-2.576a1.145,1.145,0,0,0-1.495-.018l-3.341,2.81L425.5,375.2l3.08-2.591A1.144,1.144,0,0,0,428.6,370.873Z" transform="translate(-358.963 -324.884)" fill="#ff901d"/><path d="M375.908,359.971h0a2.222,2.222,0,0,0,3.141.116l2.782-2.584a2.222,2.222,0,0,0,.116-3.14h0a2.222,2.222,0,0,0-3.141-.116l-2.782,2.584A2.222,2.222,0,0,0,375.908,359.971Z" transform="translate(-318.767 -312.209)" fill="#f4c28c"/><path d="M376.024,356.831l2.782-2.584a2.222,2.222,0,0,1,3.141.116h0a2.218,2.218,0,0,1,.565,1.866,2.222,2.222,0,0,0-2.951.065l-2.782,2.584a2.212,2.212,0,0,0-.681,1.274,2.241,2.241,0,0,1-.19-.181h0A2.222,2.222,0,0,1,376.024,356.831Z" transform="translate(-318.766 -312.209)" fill="#fed9a8"/><path d="M356.824,325.672h0a2.256,2.256,0,0,0,3.188.118l2.732-2.539a2.256,2.256,0,0,0,.118-3.187h0a2.256,2.256,0,0,0-3.188-.118l-2.732,2.539A2.256,2.256,0,0,0,356.824,325.672Z" transform="translate(-301.911 -281.921)" fill="#f4c28c"/><path d="M356.942,322.485l2.732-2.539a2.256,2.256,0,0,1,3.188.118h0a2.251,2.251,0,0,1,.577,1.87,2.256,2.256,0,0,0-3.014.051l-2.732,2.539a2.246,2.246,0,0,0-.695,1.317,2.3,2.3,0,0,1-.174-.169h0A2.256,2.256,0,0,1,356.942,322.485Z" transform="translate(-301.911 -281.921)" fill="#fed9a8"/><path d="M330.5,297.707h0a2.256,2.256,0,0,0,3.188.118l2.732-2.539a2.256,2.256,0,0,0,.118-3.187h0a2.256,2.256,0,0,0-3.188-.118l-2.732,2.538A2.255,2.255,0,0,0,330.5,297.707Z" transform="translate(-278.676 -257.233)" fill="#f4c28c"/><path d="M330.622,294.52l2.732-2.538a2.256,2.256,0,0,1,3.188.118h0a2.288,2.288,0,0,1,.162.2,2.245,2.245,0,0,0-1.376.6l-2.732,2.539a2.256,2.256,0,0,0-.28,2.991,2.251,2.251,0,0,1-1.812-.715h0A2.256,2.256,0,0,1,330.622,294.52Z" transform="translate(-278.675 -257.233)" fill="#fed9a8"/><path d="M305.156,268.693h0a2.256,2.256,0,0,0,3.188.118l2.732-2.539a2.256,2.256,0,0,0,.118-3.187h0a2.256,2.256,0,0,0-3.188-.118l-2.732,2.539A2.256,2.256,0,0,0,305.156,268.693Z" transform="translate(-256.298 -231.619)" fill="#f4c28c"/><g transform="translate(39.231 30.746)"><path d="M305.274,265.506l2.732-2.539a2.256,2.256,0,0,1,3.188.118h0a2.251,2.251,0,0,1,.577,1.868,2.256,2.256,0,0,0-3.015.049l-2.732,2.539a2.246,2.246,0,0,0-.7,1.319,2.319,2.319,0,0,1-.173-.167h0A2.256,2.256,0,0,1,305.274,265.506Z" transform="translate(-295.529 -262.365)" fill="#fed9a8"/><path d="M242.387,274.282l-.507.471a1.945,1.945,0,0,1-2.749-.063l-1.276-1.372a1.677,1.677,0,0,0-2.378-.047h0c.384,5.943-7.94,7.086-7.94,7.086l3.538-8.7a4.177,4.177,0,0,1,1.1-1.71l2.513-2.365a2.986,2.986,0,0,1,4.233.082l3.6,3.872A1.946,1.946,0,0,1,242.387,274.282Z" transform="translate(-227.538 -266.227)" fill="#fed9a8"/></g><path d="M172.657,143.509a1.029,1.029,0,0,0-1.566-.976l-3.036,1.882-3.271-1.434a1.029,1.029,0,0,0-1.412,1.188l.852,3.469-2.374,2.668a1.029,1.029,0,0,0,.693,1.71l3.562.262,1.8,3.083a1.022,1.022,0,0,0,.886.509l.075,0a1.023,1.023,0,0,0,.88-.637l1.35-3.307,3.49-.763a1.029,1.029,0,0,0,.444-1.791l-2.728-2.306Zm.13,6.254-2.433.532a1.029,1.029,0,0,0-.733.616l-.941,2.306-1.258-2.15a1.029,1.029,0,0,0-.812-.506l-2.483-.182,1.656-1.861a1.029,1.029,0,0,0,.23-.929l-.594-2.418,2.28,1a1.029,1.029,0,0,0,.956-.068l2.117-1.312-.246,2.478a1.029,1.029,0,0,0,.36.888Z" transform="translate(-130.085 -125.693)"/><path d="M70.215,45.333,67.3,42.757a2.032,2.032,0,0,0-2.637-.032l-.131.11a3.086,3.086,0,0,0-2.259-2.182,3.129,3.129,0,0,0-2.858-4.1h-.075a3.126,3.126,0,0,0-2.978-3.274,3.129,3.129,0,0,0-5.247-2.567l-.415.386a3.768,3.768,0,0,0-2.092-.708c-.1,0-.193,0-.288,0l.311-1.039a39.147,39.147,0,0,0,.9-5.059c.03.015.06.03.09.043a3.315,3.315,0,0,0,1.349.286,3.25,3.25,0,0,0,1.52-.373,3.333,3.333,0,0,0,1.723-2.686,2.865,2.865,0,0,0-1.376-2.58.875.875,0,1,0-.97,1.456,1.151,1.151,0,0,1,.6,1.035,1.5,1.5,0,0,1-2.131,1.263,1.316,1.316,0,0,1-.759-.918c-.4-1.607.519-3.2,1.585-5.047,1.93-3.344,4.332-7.506-.7-13.449L48.376.859A2.427,2.427,0,0,0,44.951.578,5.373,5.373,0,0,0,43.085,5.2l.1,1.051a1.707,1.707,0,0,1-.554,1.431l1.127,1.341A3.457,3.457,0,0,0,44.93,6.078l-.1-1.051a3.623,3.623,0,0,1,1.258-3.116.677.677,0,0,1,.955.079l2.082,2.461c4.234,5,2.428,8.132.516,11.444-.3.518-.6,1.041-.873,1.571a18.561,18.561,0,0,0-3.606-6.783l-4-4.761.022-.019a1.571,1.571,0,0,0,.191-2.214L40.089,2.168a1.572,1.572,0,0,0-2.214-.191L17.656,18.982a1.574,1.574,0,0,0-.191,2.214l1.279,1.521a1.561,1.561,0,0,0,1.068.554q.069.006.138.006a1.559,1.559,0,0,0,1.009-.369l.023-.019,1.5,1.788a1.708,1.708,0,0,1-1.493.3l-1.019-.28a5.373,5.373,0,0,0-4.869,1.06,2.427,2.427,0,0,0-.3,3.423l2.075,2.467C21.89,37.6,26.4,35.937,30.019,34.6a9.622,9.622,0,0,1,4.39-.953h0q.363.1.731.192h0c.04.016.081.032.121.05a1.316,1.316,0,0,1,.777.9,1.5,1.5,0,0,1-1.6,1.888,1.151,1.151,0,0,1-.92-.764.875.875,0,0,0-1.6.711,2.865,2.865,0,0,0,2.311,1.791,2.9,2.9,0,0,0,.344.02,3.356,3.356,0,0,0,2.594-1.266,3.3,3.3,0,0,0,.569-2.813c-.006-.022-.013-.044-.019-.066a21.6,21.6,0,0,0,2.419.137,22.334,22.334,0,0,0,2.647-.158l.077-.009a5.06,5.06,0,0,0-.909,1.607l-3.439,8.459L20.164,58.431A.875.875,0,0,0,20.7,60H41.483a.875.875,0,0,0,.627-.264l1.158-1.189a.875.875,0,1,0-1.253-1.221l-.9.924H23.271L39.764,45.568l.035-.029.024-.02a.871.871,0,0,0,.078-.081l.014-.017a.858.858,0,0,0,.06-.085l.01-.016a.874.874,0,0,0,.054-.108l0-.007,3.538-8.7c.007-.017.013-.034.019-.051a3.311,3.311,0,0,1,.868-1.351l2.513-2.365a2.171,2.171,0,0,1,1.57-.6,2.018,2.018,0,0,1,1.423.641h0l3.6,3.872h0a1.013,1.013,0,0,1,.269.733,1.115,1.115,0,0,1-.361.78l-.507.471a1.1,1.1,0,0,1-1.235.19l-.031-.015a1,1,0,0,1-.246-.193L50.189,37.24a2.49,2.49,0,0,0-1.754-.8,2.581,2.581,0,0,0-1.864.707.875.875,0,0,0-.274.6.869.869,0,0,0,0,.1s0,0,0,0c0,.066.007.132.009.2,0,.037,0,.073,0,.11s0,.056,0,.084c0,.047,0,.093,0,.139,0,.017,0,.034,0,.05,0,.052-.006.1-.01.155l0,.02c0,.022,0,.044-.005.066a4.217,4.217,0,0,1-.886,2.2.875.875,0,1,0,1.386,1.068,6.206,6.206,0,0,0,.747-1.241l7.441,10.178-.178.149a.87.87,0,0,0-.308.183A4.5,4.5,0,0,1,52.3,52.317l-5.479.394a.875.875,0,0,0-.564.262l-1.4,1.436a.875.875,0,0,0,1.253,1.221l1.166-1.2,5.2-.373.03,0a2,2,0,0,0,.289.9l2.038,3.314a2.019,2.019,0,0,0,3.02.488l12.33-10.37a2.02,2.02,0,0,0,.037-3.06Zm-40.8-12.376c-3.587,1.326-6.975,2.578-11.194-2.438l-2.075-2.467a.677.677,0,0,1,.084-.955,3.623,3.623,0,0,1,3.283-.715l1.019.28a3.458,3.458,0,0,0,3.084-.643l1.372,1.632a18.564,18.564,0,0,0,6.081,4.723C30.512,32.551,29.96,32.755,29.412,32.957Zm17.541-4.111-.661,2.2a4.048,4.048,0,0,0-.514.409l-.837.788-2.37.283a18.2,18.2,0,0,1-16.248-6.007l-4-4.761,1.563-1.315a.875.875,0,0,0-1.126-1.339l-2.232,1.877h0l-.555.467-1.05-1.249L38.865,3.43l1.05,1.249-.555.467h0L25.913,16.456a.875.875,0,0,0,1.126,1.339L39.816,7.048l4,4.761A18.2,18.2,0,0,1,46.953,28.846ZM61.6,42.319a1.346,1.346,0,0,1,1.088,2.065L58.877,47.59a1.33,1.33,0,0,1-1.095-.424,1.349,1.349,0,0,1,.07-1.9l.552-.513a3.2,3.2,0,0,0,.291-.239l2.134-1.982A1.347,1.347,0,0,1,61.6,42.319Zm-3.14-3.739A1.369,1.369,0,0,1,59.3,38.3h.052a1.381,1.381,0,0,1,.889,2.391l-.5.468a3.157,3.157,0,0,0-.291.238l-2.136,1.984a1.38,1.38,0,0,1-1.754-.225,1.382,1.382,0,0,1-.03-1.845c.03-.026.06-.052.088-.078l2.732-2.539Q58.406,38.639,58.462,38.58Zm-4.637-4.234-1.882-2.021.361-.336a1.381,1.381,0,1,1,1.879,2.023Zm.343,5.566.507-.471a2.852,2.852,0,0,0,.919-2,2.753,2.753,0,0,0-.583-1.808l.264-.246a1.381,1.381,0,0,1,1.952.072,1.383,1.383,0,0,1,.03,1.845c-.03.026-.059.051-.088.078l-2.732,2.539q-.061.056-.118.115a1.361,1.361,0,0,1-.705.275A2.872,2.872,0,0,0,54.168,39.912Zm-6.115-1.468c0-.066,0-.132.006-.2.025-.009.051-.018.077-.025a.818.818,0,0,1,.241-.028.752.752,0,0,1,.531.238L50.183,39.8a2.746,2.746,0,0,0,.424.371,3.124,3.124,0,0,0,2.759,1.893h.075a3.129,3.129,0,0,0,2.394,3.192,3.088,3.088,0,0,0,1.424,3.689l-.944.794Zm21,8.609-12.33,10.37a.27.27,0,0,1-.4-.065L54.28,54.043a.268.268,0,0,1,.056-.348l11.452-9.632h0a.271.271,0,0,1,.352,0l2.916,2.576a.27.27,0,0,1,0,.409Z"/></g></svg>